# xmcd CD database file
#
# Track frame offsets:
#	150
#	36400
#	53158
#	66490
#	79958
#	103780
#	125563
#	143768
#	155798
#	166938
#
# Disc length: 2615 seconds
#
# Revision: 2
# Processed by: cddbd v1.5PL3 Copyright (c) Steve Scherf et al.
# Submitted via: CDex 1.50
#
DISCID=920a350a
DTITLE=13th Floor Elevaters - Easter Everywhere
DYEAR=1979
DGENRE=Rock
TTITLE0=Slip inside this house
TTITLE1=slide machine
TTITLE2=She lives (in a time of her own)
TTITLE3=Nobody to love
TTITLE4=Baby blue
TTITLE5=Earthquake
TTITLE6=Dust
TTITLE7=Levitation
TTITLE8=I had to tell you
TTITLE9=Pictures (leave your body behind)
EXTD=Rerelease from 1979 YEAR: 1979
EXTT0=
EXTT1=
EXTT2=
EXTT3=
EXTT4=
EXTT5=
EXTT6=
EXTT7=
EXTT8=
EXTT9=
PLAYORDER=
